<svg width="128" height="128" viewBox="0 0 128 128" fill="none" xmlns="http://www.w3.org/2000/svg">
<g clip-path="url(#clip0_10_245)">
<path d="M33.248 112.968V109.8H36.704V113.16C36.704 113.64 36.944 113.88 37.424 113.88H40.688C41.168 113.88 41.408 113.64 41.408 113.16V103.56H36.896V100.44H44.864V112.968C44.864 115.656 43.52 117 40.832 117H37.28C34.592 117 33.248 115.656 33.248 112.968ZM47.9433 115.752V113.88H55.3833C55.8633 113.88 56.1033 113.64 56.1033 113.16V111.432C56.1033 110.968 55.9033 110.704 55.5033 110.64L50.8233 109.68C48.9033 109.296 47.9433 108.008 47.9433 105.816V104.472C47.9433 101.784 49.2873 100.44 51.9753 100.44H57.4713L59.0793 101.688V103.56H52.1193C51.6393 103.56 51.3993 103.8 51.3993 104.28V105.84C51.3993 106.288 51.5993 106.552 51.9993 106.632L56.6793 107.568C58.5993 107.952 59.5593 109.24 59.5593 111.432V112.968C59.5593 115.656 58.2153 117 55.5273 117H49.5513L47.9433 115.752ZM62.5327 112.968V104.472C62.5327 101.784 63.8767 100.44 66.5647 100.44H72.0367C74.7247 100.44 76.0687 101.784 76.0687 104.472V112.968C76.0687 115.656 74.7247 117 72.0367 117H66.5647C63.8767 117 62.5327 115.656 62.5327 112.968ZM65.9887 113.16C65.9887 113.64 66.2287 113.88 66.7087 113.88H71.8927C72.3727 113.88 72.6127 113.64 72.6127 113.16V104.28C72.6127 103.8 72.3727 103.56 71.8927 103.56H66.7087C66.2287 103.56 65.9887 103.8 65.9887 104.28V113.16ZM79.7649 117V100.44H83.5089L90.0849 111.312V100.44H93.5409V117H89.7969L83.2209 106.128V117H79.7649Z" fill="#F0F0F0"/>
<path d="M64 40C48.5375 40 36 52.8625 36 68.7125C36 81.4 44.025 92.15 55.15 95.95C55.306 95.9839 55.4653 96.0007 55.625 96C56.6625 96 57.0625 95.2375 57.0625 94.575C57.0625 93.8875 57.0375 92.0875 57.025 89.6875C56.0988 89.9046 55.1513 90.0178 54.2 90.025C48.8125 90.025 47.5875 85.8375 47.5875 85.8375C46.3125 82.525 44.475 81.6375 44.475 81.6375C42.0375 79.925 44.4625 79.875 44.65 79.875H44.6625C47.475 80.125 48.95 82.85 48.95 82.85C50.35 85.3 52.225 85.9875 53.9 85.9875C55.0075 85.9654 56.098 85.7098 57.1 85.2375C57.35 83.3875 58.075 82.125 58.875 81.4C52.6625 80.675 46.125 78.2125 46.125 67.2125C46.125 64.075 47.2125 61.5125 49 59.5125C48.7125 58.7875 47.75 55.8625 49.275 51.9125C49.4796 51.8636 49.6898 51.8425 49.9 51.85C50.9125 51.85 53.2 52.2375 56.975 54.8625C61.5619 53.5791 66.4131 53.5791 71 54.8625C74.775 52.2375 77.0625 51.85 78.075 51.85C78.2852 51.8425 78.4954 51.8636 78.7 51.9125C80.225 55.8625 79.2625 58.7875 78.975 59.5125C80.7625 61.525 81.85 64.0875 81.85 67.2125C81.85 78.2375 75.3 80.6625 69.0625 81.375C70.0625 82.2625 70.9625 84.0125 70.9625 86.6875C70.9625 90.525 70.925 93.625 70.925 94.5625C70.925 95.2375 71.3125 96 72.35 96C72.5179 96.0007 72.6855 95.984 72.85 95.95C83.9875 92.15 92 81.3875 92 68.7125C92 52.8625 79.4625 40 64 40Z" fill="#F0F0F0"/>
<path d="M108.615 16H19.3846C11.9925 16 6 21.9925 6 29.3846V109.692C6 117.084 11.9925 123.077 19.3846 123.077H108.615C116.007 123.077 122 117.084 122 109.692V29.3846C122 21.9925 116.007 16 108.615 16Z" stroke="#F0F0F0" stroke-width="6" stroke-linejoin="round"/>
<path d="M28.3077 4V12.9231M99.6923 4V12.9231M122 35.2308H6" stroke="#F0F0F0" stroke-width="6" stroke-linecap="round" stroke-linejoin="round"/>
</g>
<defs>
<clipPath id="clip0_10_245">
<rect width="128" height="128" fill="white"/>
</clipPath>
</defs>
</svg>
