<svg width="853" height="200" viewBox="0 0 853 200" fill="none" xmlns="http://www.w3.org/2000/svg">
<g clip-path="url(#clip0_22_20)">
<g clip-path="url(#clip1_22_20)">
<mask id="mask0_22_20" style="mask-type:luminance" maskUnits="userSpaceOnUse" x="0" y="0" width="200" height="200">
<path d="M200 0H0V200H200V0Z" fill="white"/>
</mask>
<g mask="url(#mask0_22_20)">
<path d="M51.95 176.513V171.563H57.35V176.813C57.35 177.563 57.725 177.937 58.475 177.937H63.575C64.325 177.937 64.7 177.563 64.7 176.813V161.812H57.65V156.938H70.1V176.513C70.1 180.712 68 182.812 63.8 182.812H58.25C54.05 182.812 51.95 180.712 51.95 176.513ZM74.9114 180.862V177.937H86.5364C87.2864 177.937 87.6614 177.563 87.6614 176.813V174.112C87.6614 173.387 87.3489 172.975 86.7239 172.875L79.4114 171.375C76.4114 170.775 74.9114 168.762 74.9114 165.337V163.237C74.9114 159.037 77.0114 156.938 81.2114 156.938H89.7989L92.3114 158.888V161.812H81.4364C80.6864 161.812 80.3114 162.187 80.3114 162.937V165.375C80.3114 166.075 80.6239 166.488 81.2489 166.613L88.5614 168.075C91.5614 168.675 93.0614 170.687 93.0614 174.112V176.513C93.0614 180.712 90.9614 182.812 86.7614 182.812H77.4239L74.9114 180.862ZM97.7074 176.513V163.237C97.7074 159.037 99.8074 156.938 104.007 156.938H112.557C116.757 156.938 118.857 159.037 118.857 163.237V176.513C118.857 180.712 116.757 182.812 112.557 182.812H104.007C99.8074 182.812 97.7074 180.712 97.7074 176.513ZM103.107 176.813C103.107 177.563 103.482 177.937 104.232 177.937H112.332C113.082 177.937 113.457 177.563 113.457 176.813V162.937C113.457 162.187 113.082 161.812 112.332 161.812H104.232C103.482 161.812 103.107 162.187 103.107 162.937V176.813ZM124.633 182.812V156.938H130.483L140.758 173.925V156.938H146.158V182.812H140.308L130.033 165.825V182.812H124.633Z" fill="#F0F0F0"/>
<path d="M100 62.5C75.8398 62.5 56.25 82.5977 56.25 107.363C56.25 127.188 68.7891 143.984 86.1719 149.922C86.4156 149.975 86.6645 150.001 86.9141 150C88.5352 150 89.1602 148.809 89.1602 147.773C89.1602 146.699 89.1211 143.887 89.1016 140.137C87.6544 140.476 86.1739 140.653 84.6875 140.664C76.2695 140.664 74.3555 134.121 74.3555 134.121C72.3633 128.945 69.4922 127.559 69.4922 127.559C65.6836 124.883 69.4727 124.805 69.7656 124.805H69.7852C74.1797 125.195 76.4844 129.453 76.4844 129.453C78.6719 133.281 81.6016 134.355 84.2188 134.355C85.9492 134.321 87.6531 133.922 89.2187 133.184C89.6094 130.293 90.7422 128.32 91.9922 127.188C82.2852 126.055 72.0703 122.207 72.0703 105.02C72.0703 100.117 73.7695 96.1133 76.5625 92.9883C76.1133 91.8555 74.6094 87.2852 76.9922 81.1133C77.3119 81.0369 77.6403 81.0039 77.9688 81.0156C79.5508 81.0156 83.125 81.6211 89.0234 85.7227C96.1905 83.7173 103.77 83.7173 110.938 85.7227C116.836 81.6211 120.41 81.0156 121.992 81.0156C122.321 81.0039 122.649 81.0369 122.969 81.1133C125.352 87.2852 123.848 91.8555 123.398 92.9883C126.191 96.1328 127.891 100.137 127.891 105.02C127.891 122.246 117.656 126.035 107.91 127.148C109.473 128.535 110.879 131.27 110.879 135.449C110.879 141.445 110.82 146.289 110.82 147.754C110.82 148.809 111.426 150 113.047 150C113.309 150.001 113.571 149.975 113.828 149.922C131.23 143.984 143.75 127.168 143.75 107.363C143.75 82.5977 124.16 62.5 100 62.5Z" fill="#F0F0F0"/>
<path d="M169.711 25H30.2884C18.7383 25 9.375 34.3633 9.375 45.9134V171.394C9.375 182.944 18.7383 192.308 30.2884 192.308H169.711C181.261 192.308 190.625 182.944 190.625 171.394V45.9134C190.625 34.3633 181.261 25 169.711 25Z" stroke="#F0F0F0" stroke-width="10" stroke-linejoin="round"/>
<path d="M44.2308 6.25V20.1923M155.769 6.25V20.1923M190.625 55.0481H9.375" stroke="#F0F0F0" stroke-width="10" stroke-linecap="round" stroke-linejoin="round"/>
</g>
</g>
<path d="M220.048 72.888V43.152C220.048 33.744 224.752 29.04 234.16 29.04H258.436L264.064 33.408V39.96H234.664C232.984 39.96 232.144 40.8 232.144 42.48V73.56C232.144 75.24 232.984 76.08 234.664 76.08H253.648V62.64H242.56V51.72H265.744V87H234.16C224.752 87 220.048 82.296 220.048 72.888ZM276.726 35.34V24H288.822V35.34H276.726ZM276.978 87V42.648H288.57V87H276.978ZM300.349 73.392V29.04H311.941V42.648H326.389V52.728H311.941V74.232C311.941 76.024 312.837 76.92 314.629 76.92H327.229V83.22L322.189 87H313.957C304.885 87 300.349 82.464 300.349 73.392ZM336.286 87V24.84H347.878V42.648H360.814C369.886 42.648 374.422 47.184 374.422 56.256V87H362.83V55.416C362.83 53.624 361.934 52.728 360.142 52.728H347.878V87H336.286ZM385.825 73.392V42.648H397.417V74.232C397.417 76.024 398.313 76.92 400.105 76.92H412.369V42.648H423.961V87H399.433C390.361 87 385.825 82.464 385.825 73.392ZM436.036 87V24.84H447.628V42.648H460.564C469.636 42.648 474.172 47.184 474.172 56.256V73.392C474.172 82.464 469.636 87 460.564 87H436.036ZM447.628 76.92H459.892C461.684 76.92 462.58 76.024 462.58 74.232V55.416C462.58 53.624 461.684 52.728 459.892 52.728H447.628V76.92ZM505.763 72.888V43.152C505.763 33.744 510.467 29.04 519.875 29.04H542.303L547.931 33.408V39.96H520.379C518.699 39.96 517.859 40.8 517.859 42.48V73.56C517.859 75.24 518.699 76.08 520.379 76.08H547.931V82.632L542.303 87H519.875C510.467 87 505.763 82.296 505.763 72.888ZM569.437 87C560.365 87 555.829 82.548 555.829 73.644C555.829 64.74 560.365 60.288 569.437 60.288H581.029V55.416C581.029 53.624 580.133 52.728 578.341 52.728H560.533V46.428L565.573 42.648H579.013C588.085 42.648 592.621 47.184 592.621 56.256V87H569.437ZM567.421 74.232C567.421 76.024 568.317 76.92 570.109 76.92H581.029V69.192H570.109C568.317 69.192 567.421 70.088 567.421 71.88V74.232ZM604.028 70.872V24.84H615.62V72.048C615.62 75.52 617.412 77.452 620.996 77.844V87.84C609.684 87.84 604.028 82.184 604.028 70.872ZM629.696 73.392V56.256C629.696 47.184 634.232 42.648 643.304 42.648H654.224C663.296 42.648 667.832 47.184 667.832 56.256V69.108H641.288V74.232C641.288 76.024 642.184 76.92 643.976 76.92H666.152V83.22L661.112 87H643.304C634.232 87 629.696 82.464 629.696 73.392ZM641.288 60.204H656.24V55.416C656.24 53.624 655.344 52.728 653.552 52.728H643.976C642.184 52.728 641.288 53.624 641.288 55.416V60.204ZM679.259 87V42.648H703.787C712.859 42.648 717.395 47.184 717.395 56.256V87H705.803V55.416C705.803 53.624 704.907 52.728 703.115 52.728H690.851V87H679.259ZM728.462 73.392V56.256C728.462 47.184 732.998 42.648 742.07 42.648H755.006V24.84H766.598V87H742.07C732.998 87 728.462 82.464 728.462 73.392ZM740.054 74.232C740.054 76.024 740.95 76.92 742.742 76.92H755.006V52.728H742.742C740.95 52.728 740.054 53.624 740.054 55.416V74.232ZM789.937 87C780.865 87 776.329 82.548 776.329 73.644C776.329 64.74 780.865 60.288 789.937 60.288H801.529V55.416C801.529 53.624 800.633 52.728 798.841 52.728H781.033V46.428L786.073 42.648H799.513C808.585 42.648 813.121 47.184 813.121 56.256V87H789.937ZM787.921 74.232C787.921 76.024 788.817 76.92 790.609 76.92H801.529V69.192H790.609C788.817 69.192 787.921 70.088 787.921 71.88V74.232ZM824.528 87V48.36C826.6 44.552 830.576 42.648 836.456 42.648H845.528L850.568 46.428V52.728H839.564C837.884 52.728 836.736 53.148 836.12 53.988V87H824.528Z" fill="#F0F0F0"/>
<path d="M218.368 160.888V149.8H230.464V161.56C230.464 163.24 231.304 164.08 232.984 164.08H244.408C246.088 164.08 246.928 163.24 246.928 161.56V127.96H231.136V117.04H259.024V160.888C259.024 170.296 254.32 175 244.912 175H232.48C223.072 175 218.368 170.296 218.368 160.888ZM269.802 170.632V164.08H295.842C297.522 164.08 298.362 163.24 298.362 161.56V155.512C298.362 153.888 297.662 152.964 296.262 152.74L279.882 149.38C273.162 148.036 269.802 143.528 269.802 135.856V131.152C269.802 121.744 274.506 117.04 283.914 117.04H303.15L308.778 121.408V127.96H284.418C282.738 127.96 281.898 128.8 281.898 130.48V135.94C281.898 137.508 282.598 138.432 283.998 138.712L300.378 141.988C307.098 143.332 310.458 147.84 310.458 155.512V160.888C310.458 170.296 305.754 175 296.346 175H275.43L269.802 170.632ZM320.864 160.888V131.152C320.864 121.744 325.568 117.04 334.976 117.04H354.128C363.536 117.04 368.24 121.744 368.24 131.152V160.888C368.24 170.296 363.536 175 354.128 175H334.976C325.568 175 320.864 170.296 320.864 160.888ZM332.96 161.56C332.96 163.24 333.8 164.08 335.48 164.08H353.624C355.304 164.08 356.144 163.24 356.144 161.56V130.48C356.144 128.8 355.304 127.96 353.624 127.96H335.48C333.8 127.96 332.96 128.8 332.96 130.48V161.56ZM381.177 175V117.04H394.281L417.297 155.092V117.04H429.393V175H416.289L393.273 136.948V175H381.177Z" fill="#F0F0F0"/>
</g>
<defs>
<clipPath id="clip0_22_20">
<rect width="853" height="200" fill="white"/>
</clipPath>
<clipPath id="clip1_22_20">
<rect width="200" height="200" fill="white"/>
</clipPath>
</defs>
</svg>
