<svg width="128" height="128" viewBox="0 0 128 128" fill="none" xmlns="http://www.w3.org/2000/svg">
<path d="M121.816 6.788C120.184 4.99 117.898 4 115.378 4H12.624C10.102 4 7.81599 4.99 6.18199 6.788C4.56599 8.562 3.80599 10.892 4.04199 13.348L13.682 115.022C14.15 119.972 18.614 124 23.632 124H104.372C109.388 124 113.852 119.972 114.322 115.024L123.958 13.348C124.192 10.89 123.434 8.56 121.816 6.788ZM110.464 114.658C110.182 117.622 107.394 120.13 104.37 120.13H23.63C20.606 120.13 17.814 117.622 17.532 114.656L7.89599 12.98C7.76799 11.622 8.17599 10.348 9.04599 9.39C9.93799 8.41 11.206 7.87 12.624 7.87H115.378C116.792 7.87 118.062 8.41 118.956 9.39C119.824 10.348 120.23 11.622 120.104 12.98L110.464 114.658Z" fill="#F0F0F0"/>
<path d="M106.714 91.216C94.506 91.216 83.086 98.476 83.086 98.476C83.086 98.476 105.234 95.034 103.062 96.66C86.522 109.058 37.24 108.706 27.662 97.568C22.456 91.52 60.928 105.93 68.542 91.216H21.286C19.286 91.216 17.882 92.836 18.162 94.808L20.772 113.03C21.056 115.004 22.92 116.62 24.92 116.62H103.082C105.082 116.62 106.946 115.004 107.23 113.03L109.84 94.808C110.122 92.836 109.876 91.216 106.714 91.216ZM48.58 112.766C27.258 112.766 24.922 116.622 24.082 106.87C23.594 101.18 31.004 107.806 37.93 109.138C40.272 109.59 69.898 112.766 48.58 112.766ZM105.218 106.87C104.378 116.622 102.046 112.766 80.726 112.766C59.402 112.766 89.03 109.59 91.374 109.138C98.3 107.804 105.71 101.18 105.218 106.87ZM109.808 58.67C106.296 57.82 103.108 57.508 103.108 57.508C102.296 54.57 96.858 50.016 90.116 44.006C88.67 43.326 86.988 42.952 85.596 43.106L74.142 44.29C71.856 44.524 69.248 46.372 68.208 48.496L64.856 55.328C65.2 52.946 64.662 49.786 63.518 47.81L56.348 35.344C55.028 33.058 51.89 31.708 49.39 32.364L35.2 36.108C32.8 36.74 30.11 39.032 29.08 41.322L23.46 53.896C22.516 55.776 23.232 58.192 23.232 58.194L18.69 58.59C16.858 58.77 15.54 60.298 15.716 62.168L17.784 83.972C17.972 85.96 19.78 87.586 21.796 87.586H106.202C108.218 87.586 110.026 85.96 110.214 83.972L112.284 62.168C112.369 61.3833 112.164 60.5946 111.708 59.9504C111.252 59.3061 110.576 58.8508 109.808 58.67ZM69.95 49.346C70.7 47.814 72.712 46.382 74.344 46.214L85.802 45.03C87.506 44.854 89.88 45.756 91.016 46.922L100.16 56.364C100.472 56.684 100.718 57.108 100.886 57.59H85.014C84.1 56.72 83.55 56.02 83.55 56.02C83.55 56.02 76.218 46.324 74.484 48.112C73.024 49.624 78.086 53.488 81.742 57.59H68.836C69.25 56.636 69.754 55.66 70.282 54.626C72.822 49.64 70.946 49.47 68.736 53.47C68.044 54.72 67.186 56.148 66.388 57.592H65.906L69.95 49.346ZM96.546 59.524C95.726 59.724 94.796 60.02 93.788 60.436C91.546 61.358 89.324 60.634 87.518 59.524H96.546ZM25.502 53.982L30.846 42.116C31.636 40.358 33.854 38.462 35.694 37.978L49.888 34.232C51.534 33.794 53.794 34.788 54.67 36.308L61.846 48.772C62.85 50.506 63.312 53.612 62.862 55.552L62.39 57.59H54.026C52.904 55.25 51.93 52.93 51.69 51.052C51.246 47.54 52.986 43.258 53.294 39.182C53.684 34.006 51.066 36.638 50.186 42.832C49.302 49.034 40.178 50.416 40.178 50.416C40.178 50.416 26.766 52.246 27.494 54.926C28.426 58.354 42.976 50.094 48.55 53.112C49.57 53.664 50.62 55.432 51.656 57.588H25.146C24.948 56.268 25.074 54.938 25.502 53.982ZM56.348 72.324L40.144 76.558C38.036 77.108 35.302 76.024 34.07 74.146L25.21 60.666C24.9836 60.3068 24.7971 59.9238 24.654 59.524H28.106C27.772 59.926 28.124 61.406 29.362 63.512C31.958 67.928 35.338 75.092 38.69 74.208C42.042 73.324 51.304 70.878 53.018 70.422C54.736 69.968 55.424 67.01 46.208 69.444C36.99 71.88 34.666 67.88 31.338 62.636C30.164 60.792 29.262 59.828 28.688 59.524H52.54C54.742 64.534 56.788 70.266 58.154 68.37C59.006 67.19 56.992 63.506 54.978 59.524H62.928L61.096 67.38C60.59 69.544 58.458 71.776 56.348 72.324ZM101.516 61.442L95.14 72.718C94.144 74.48 91.784 76.4 89.898 76.99L79.808 80.12C77.926 80.706 75.272 80.036 73.922 78.634L63.51 67.84C62.154 66.436 61.776 63.798 62.672 61.98L63.878 59.524H65.382C64.158 62.058 63.476 64.4 64.67 65.63C66.832 67.86 72.8 74.018 73.902 75.162C75.016 76.302 77.586 75.502 71.64 69.372C67.78 65.388 67.3 62.458 68.128 59.524H83.308C84.39 60.996 85.152 62.46 85.19 63.812C85.28 67.44 74.472 77.916 77.748 78.262C79.982 78.496 84.166 68.46 88.158 65.344C90.646 63.404 94.7 62.83 97.958 61.222C99.504 60.46 100.028 59.866 99.81 59.524H102.064C102.012 60.204 101.84 60.868 101.516 61.442Z" fill="#F0F0F0"/>
</svg>
