<svg width="673" height="200" viewBox="0 0 673 200" fill="none" xmlns="http://www.w3.org/2000/svg">
<g clip-path="url(#clip0_22_3)">
<path d="M190.337 10.6063C187.787 7.79688 184.216 6.25 180.278 6.25H19.725C15.7843 6.25 12.2125 7.79688 9.65934 10.6063C7.13434 13.3781 5.94684 17.0187 6.31559 20.8562L21.3781 179.722C22.1093 187.456 29.0843 193.75 36.925 193.75H163.081C170.919 193.75 177.894 187.456 178.628 179.725L193.684 20.8562C194.05 17.0156 192.866 13.375 190.337 10.6063ZM172.6 179.153C172.159 183.784 167.803 187.703 163.078 187.703H36.9218C32.1968 187.703 27.8343 183.784 27.3937 179.15L12.3375 20.2812C12.1375 18.1594 12.775 16.1688 14.1343 14.6719C15.5281 13.1406 17.5093 12.2969 19.725 12.2969H180.278C182.487 12.2969 184.472 13.1406 185.869 14.6719C187.225 16.1688 187.859 18.1594 187.662 20.2812L172.6 179.153Z" fill="#F0F0F0"/>
<path d="M166.741 142.525C147.666 142.525 129.822 153.869 129.822 153.869C129.822 153.869 164.428 148.491 161.034 151.031C135.191 170.403 58.1875 169.853 43.2219 152.45C35.0875 143 95.2 165.516 107.097 142.525H33.2594C30.1344 142.525 27.9406 145.056 28.3781 148.137L32.4562 176.609C32.9 179.694 35.8125 182.219 38.9375 182.219H161.066C164.191 182.219 167.103 179.694 167.547 176.609L171.625 148.137C172.066 145.056 171.681 142.525 166.741 142.525ZM75.9063 176.197C42.5906 176.197 38.9406 182.222 37.6281 166.984C36.8656 158.094 48.4437 168.447 59.2656 170.528C62.925 171.234 109.216 176.197 75.9063 176.197ZM164.403 166.984C163.091 182.222 159.447 176.197 126.134 176.197C92.8156 176.197 139.109 171.234 142.772 170.528C153.594 168.444 165.172 158.094 164.403 166.984ZM171.575 91.6719C166.088 90.3437 161.106 89.8562 161.106 89.8562C159.838 85.2656 151.341 78.15 140.806 68.7594C138.547 67.6969 135.919 67.1125 133.744 67.3531L115.847 69.2031C112.275 69.5687 108.2 72.4562 106.575 75.775L101.338 86.45C101.875 82.7281 101.034 77.7906 99.2469 74.7031L88.0438 55.225C85.9813 51.6531 81.0781 49.5437 77.1719 50.5687L55 56.4187C51.25 57.4062 47.0469 60.9875 45.4375 64.5656L36.6562 84.2125C35.1812 87.15 36.3 90.925 36.3 90.9281L29.2031 91.5469C26.3406 91.8281 24.2812 94.2156 24.5562 97.1375L27.7875 131.206C28.0812 134.312 30.9062 136.853 34.0562 136.853H165.941C169.091 136.853 171.916 134.312 172.209 131.206L175.444 97.1375C175.576 95.9114 175.256 94.6791 174.544 93.6725C173.831 92.6658 172.776 91.9543 171.575 91.6719ZM109.297 77.1031C110.469 74.7094 113.613 72.4719 116.163 72.2094L134.066 70.3594C136.728 70.0844 140.438 71.4937 142.213 73.3156L156.5 88.0687C156.988 88.5687 157.372 89.2312 157.634 89.9844H132.834C131.406 88.625 130.547 87.5312 130.547 87.5312C130.547 87.5312 119.091 72.3812 116.381 75.175C114.1 77.5375 122.009 83.575 127.722 89.9844H107.556C108.203 88.4937 108.991 86.9687 109.816 85.3531C113.784 77.5625 110.853 77.2969 107.4 83.5469C106.319 85.5 104.978 87.7312 103.731 89.9875H102.978L109.297 77.1031ZM150.853 93.0062C149.572 93.3187 148.119 93.7812 146.544 94.4312C143.041 95.8719 139.569 94.7406 136.747 93.0062H150.853ZM39.8469 84.3469L48.1969 65.8062C49.4312 63.0594 52.8969 60.0969 55.7719 59.3406L77.95 53.4875C80.5219 52.8031 84.0531 54.3562 85.4219 56.7312L96.6344 76.2062C98.2031 78.9156 98.925 83.7687 98.2219 86.8L97.4844 89.9844H84.4156C82.6625 86.3281 81.1406 82.7031 80.7656 79.7687C80.0719 74.2812 82.7906 67.5906 83.2719 61.2219C83.8813 53.1344 79.7906 57.2469 78.4156 66.925C77.0344 76.6156 62.7781 78.775 62.7781 78.775C62.7781 78.775 41.8219 81.6344 42.9594 85.8219C44.4156 91.1781 67.15 78.2719 75.8594 82.9875C77.4531 83.85 79.0938 86.6125 80.7125 89.9812H39.2906C38.9812 87.9187 39.1781 85.8406 39.8469 84.3469ZM88.0438 113.006L62.725 119.622C59.4313 120.481 55.1594 118.787 53.2344 115.853L39.3906 94.7906C39.0368 94.2293 38.7455 93.6309 38.5219 93.0062H43.9156C43.3937 93.6344 43.9437 95.9469 45.8781 99.2375C49.9344 106.137 55.2156 117.331 60.4531 115.95C65.6906 114.569 80.1625 110.747 82.8406 110.034C85.525 109.325 86.6 104.703 72.2 108.506C57.7969 112.312 54.1656 106.062 48.9656 97.8687C47.1312 94.9875 45.7219 93.4812 44.825 93.0062H82.0938C85.5344 100.834 88.7313 109.791 90.8656 106.828C92.1969 104.984 89.05 99.2281 85.9031 93.0062H98.325L95.4625 105.281C94.6719 108.662 91.3406 112.15 88.0438 113.006ZM158.619 96.0031L148.656 113.622C147.1 116.375 143.413 119.375 140.466 120.297L124.7 125.187C121.759 126.103 117.613 125.056 115.503 122.866L99.2344 106C97.1156 103.806 96.525 99.6844 97.925 96.8437L99.8094 93.0062H102.159C100.247 96.9656 99.1813 100.625 101.047 102.547C104.425 106.031 113.75 115.653 115.472 117.441C117.213 119.222 121.228 117.972 111.938 108.394C105.906 102.169 105.156 97.5906 106.45 93.0062H130.169C131.859 95.3062 133.05 97.5937 133.109 99.7062C133.25 105.375 116.363 121.744 121.481 122.284C124.972 122.65 131.509 106.969 137.747 102.1C141.634 99.0687 147.969 98.1719 153.059 95.6594C155.475 94.4687 156.294 93.5406 155.953 93.0062H159.475C159.394 94.0687 159.125 95.1062 158.619 96.0031Z" fill="#F0F0F0"/>
<g clip-path="url(#clip1_22_3)">
<path d="M230.716 89.58C228.644 89.58 227.104 88.768 226.096 87.144C225.088 85.464 224.584 82.44 224.584 78.072C224.584 72.472 225.088 66.956 226.096 61.524C227.16 56.092 228.644 50.996 230.548 46.236C232.508 41.476 234.86 37.304 237.604 33.72C240.404 30.08 243.568 27.252 247.096 25.236C250.624 23.164 254.46 22.128 258.604 22.128C264.764 22.128 269.328 23.78 272.296 27.084C275.32 30.332 276.832 35.12 276.832 41.448C276.832 44.808 276.16 47.804 274.816 50.436C273.472 53.012 271.708 55.056 269.524 56.568C267.396 58.024 265.1 58.752 262.636 58.752C261.236 58.752 259.752 58.5 258.184 57.996C261.208 61.916 264.232 65.332 267.256 68.244C270.336 71.156 273.388 73.844 276.412 76.308C279.492 78.716 282.572 81.18 285.652 83.7C287.276 84.988 288.2 86.36 288.424 87.816C288.648 89.272 288.256 90.504 287.248 91.512C286.296 92.576 284.812 93.108 282.796 93.108C281.228 93.108 279.24 92.408 276.832 91.008C274.424 89.664 271.82 87.844 269.02 85.548C266.22 83.196 263.42 80.592 260.62 77.736C257.876 74.88 255.356 71.968 253.06 69C250.82 66.032 249 63.204 247.6 60.516C246.256 57.828 245.584 55.532 245.584 53.628C245.584 51.836 246.06 50.464 247.012 49.512C247.964 48.504 249.196 48 250.708 48C251.94 48 253.06 48.168 254.068 48.504C255.132 48.84 256.252 49.008 257.428 49.008C258.66 49.008 259.948 48.672 261.292 48C262.692 47.328 263.868 46.292 264.82 44.892C265.772 43.436 266.248 41.588 266.248 39.348C266.248 36.884 265.548 35.232 264.148 34.392C262.804 33.552 260.984 33.132 258.688 33.132C255.496 33.132 252.612 34.252 250.036 36.492C247.46 38.732 245.22 41.896 243.316 45.984C241.412 50.072 239.872 54.888 238.696 60.432C237.576 65.976 236.82 72.024 236.428 78.576C236.204 82.832 235.644 85.744 234.748 87.312C233.852 88.824 232.508 89.58 230.716 89.58ZM303.812 91.26C302.244 91.26 300.844 90.728 299.612 89.664C298.436 88.6 297.848 86.864 297.848 84.456C297.848 83.168 298.016 81.348 298.352 78.996C298.744 76.644 299.248 74.096 299.864 71.352C300.48 68.552 301.152 65.78 301.88 63.036C302.664 60.292 303.42 57.856 304.148 55.728C304.876 53.544 305.52 51.92 306.08 50.856C306.808 49.568 307.48 48.784 308.096 48.504C308.768 48.168 309.412 48 310.028 48C311.148 48 312.184 48.336 313.136 49.008C314.144 49.68 314.648 51.164 314.648 53.46C314.648 54.356 314.48 55.812 314.144 57.828C313.808 59.788 313.388 62.084 312.884 64.716C312.38 67.348 311.82 70.064 311.204 72.864C310.644 75.664 310.084 78.324 309.524 80.844C309.02 83.308 308.6 85.38 308.264 87.06C307.984 88.46 307.396 89.496 306.5 90.168C305.66 90.896 304.764 91.26 303.812 91.26ZM313.472 39.684C311.624 39.684 309.916 39.152 308.348 38.088C306.78 36.968 305.996 35.26 305.996 32.964C305.996 31.06 306.472 29.52 307.424 28.344C308.376 27.168 309.496 26.328 310.784 25.824C312.128 25.264 313.304 24.984 314.312 24.984C315.32 24.984 316.44 25.208 317.672 25.656C318.904 26.048 319.968 26.804 320.864 27.924C321.816 28.988 322.292 30.528 322.292 32.544C322.292 33.888 321.816 35.12 320.864 36.24C319.912 37.304 318.736 38.144 317.336 38.76C315.992 39.376 314.704 39.684 313.472 39.684ZM334.335 90C332.991 90 331.647 89.552 330.303 88.656C329.015 87.704 327.951 86.36 327.111 84.624C326.271 82.832 325.851 80.676 325.851 78.156C325.851 74.796 326.299 71.212 327.195 67.404C328.147 63.596 329.295 59.788 330.639 55.98C331.983 52.172 333.299 48.588 334.587 45.228C335.203 43.604 335.959 42.512 336.855 41.952C337.751 41.336 338.927 41.028 340.383 41.028C343.687 41.028 345.339 42.68 345.339 45.984C345.339 46.544 345.087 47.636 344.583 49.26C344.079 50.828 343.407 52.76 342.567 55.056C341.783 57.352 340.943 59.844 340.047 62.532C339.207 65.164 338.423 67.852 337.695 70.596C337.023 73.284 336.491 75.832 336.099 78.24C337.387 76.28 338.815 73.844 340.383 70.932C342.007 67.964 343.715 64.856 345.507 61.608C347.355 58.36 349.203 55.336 351.051 52.536C352.899 49.68 354.719 47.356 356.511 45.564C358.303 43.772 360.011 42.876 361.635 42.876C363.035 42.876 364.351 43.156 365.583 43.716C366.871 44.22 367.991 45.228 368.943 46.74C369.895 48.196 370.623 50.296 371.127 53.04C371.687 55.784 371.967 59.396 371.967 63.876C371.967 66.116 372.163 68.3 372.555 70.428C373.003 72.5 373.731 74.236 374.739 75.636C375.747 76.98 377.175 77.652 379.023 77.652C382.215 77.652 385.071 77.064 387.591 75.888C390.111 74.712 392.323 73.34 394.227 71.772C396.131 70.204 397.727 68.832 399.015 67.656C399.799 66.872 400.471 66.256 401.031 65.808C401.647 65.36 402.151 65.136 402.543 65.136C403.719 65.136 404.559 65.444 405.063 66.06C405.623 66.676 405.903 67.516 405.903 68.58C405.903 69.14 405.427 70.176 404.475 71.688C403.523 73.2 402.179 74.936 400.443 76.896C398.763 78.8 396.831 80.648 394.647 82.44C392.463 84.232 390.111 85.716 387.591 86.892C385.071 88.068 382.495 88.656 379.863 88.656C375.439 88.656 371.771 87.872 368.859 86.304C366.003 84.68 363.875 81.992 362.475 78.24C361.075 74.432 360.375 69.252 360.375 62.7C360.375 62.532 360.375 62.252 360.375 61.86C360.375 60.124 360.347 58.584 360.291 57.24C360.291 55.896 360.207 54.804 360.039 53.964C359.087 55.7 357.939 57.772 356.595 60.18C355.307 62.588 353.907 65.164 352.395 67.908C350.883 70.596 349.315 73.256 347.691 75.888C346.067 78.464 344.443 80.816 342.819 82.944C341.251 85.072 339.739 86.78 338.283 88.068C336.827 89.356 335.511 90 334.335 90ZM413.381 92.352C410.245 92.352 407.529 91.624 405.233 90.168C402.937 88.768 401.173 86.948 399.941 84.708C398.709 82.412 398.093 80.06 398.093 77.652C398.093 73.62 398.709 69.896 399.941 66.48C401.173 63.008 402.797 59.872 404.813 57.072C406.829 54.216 409.013 51.696 411.365 49.512C413.773 47.328 416.097 45.508 418.337 44.052C420.633 42.54 422.677 41.42 424.469 40.692C426.261 39.908 427.577 39.516 428.417 39.516C429.929 39.516 430.993 39.852 431.609 40.524C432.281 41.14 432.617 42.176 432.617 43.632C432.617 44.472 432.001 45.48 430.769 46.656C429.593 47.832 428.025 49.176 426.065 50.688C424.161 52.2 422.145 53.908 420.017 55.812C417.889 57.716 415.845 59.844 413.885 62.196C411.981 64.548 410.413 67.124 409.181 69.924C408.005 72.724 407.417 75.776 407.417 79.08C407.417 80.312 407.641 81.264 408.089 81.936C408.593 82.608 409.405 82.944 410.525 82.944C413.717 82.944 417.133 82.384 420.773 81.264C424.469 80.088 428.137 78.632 431.777 76.896C435.473 75.104 438.945 73.256 442.193 71.352C445.497 69.448 448.325 67.74 450.677 66.228C451.629 65.556 452.441 65.024 453.113 64.632C453.785 64.24 454.261 64.044 454.541 64.044C456.221 64.044 457.061 64.912 457.061 66.648C457.061 67.544 456.389 68.748 455.045 70.26C453.477 72.22 451.349 74.236 448.661 76.308C446.029 78.38 443.089 80.368 439.841 82.272C436.649 84.176 433.373 85.884 430.013 87.396C426.709 88.908 423.601 90.112 420.689 91.008C417.777 91.904 415.341 92.352 413.381 92.352ZM463.234 92.772C459.258 92.772 456.066 91.372 453.658 88.572C451.25 85.716 450.046 81.908 450.046 77.148C450.046 75.636 450.242 74.096 450.634 72.528C451.082 70.96 451.614 69.504 452.23 68.16C451.894 67.656 451.614 67.012 451.39 66.228C451.222 65.388 451.138 64.408 451.138 63.288C451.138 59.648 451.782 56.316 453.07 53.292C454.358 50.212 456.094 47.552 458.278 45.312C460.462 43.072 462.87 41.336 465.502 40.104C468.134 38.872 470.794 38.256 473.482 38.256C478.074 38.256 481.826 39.796 484.738 42.876C487.706 45.956 489.19 50.744 489.19 57.24C489.19 60.488 488.686 63.792 487.678 67.152C486.67 70.512 485.298 73.732 483.562 76.812C481.882 79.836 479.922 82.552 477.682 84.96C475.498 87.368 473.146 89.272 470.626 90.672C468.162 92.072 465.698 92.772 463.234 92.772ZM461.89 64.38C462.17 64.996 462.31 65.724 462.31 66.564C462.31 67.404 462.142 68.272 461.806 69.168C461.47 70.064 461.134 71.268 460.798 72.78C460.462 74.236 460.294 76.336 460.294 79.08C460.294 79.808 460.378 80.424 460.546 80.928C460.77 81.376 461.246 81.6 461.974 81.6C463.878 81.6 465.67 80.984 467.35 79.752C469.086 78.52 470.626 76.896 471.97 74.88C473.37 72.864 474.546 70.624 475.498 68.16C476.506 65.64 477.262 63.092 477.766 60.516C478.326 57.884 478.606 55.448 478.606 53.208C478.606 51.752 478.326 50.744 477.766 50.184C477.206 49.624 476.226 49.344 474.826 49.344C472.922 49.344 470.962 49.96 468.946 51.192C466.986 52.368 465.334 53.992 463.99 56.064C462.646 58.08 461.974 60.376 461.974 62.952C461.974 63.456 461.946 63.932 461.89 64.38ZM473.482 36.576C471.298 36.576 470.206 35.484 470.206 33.3C470.206 32.908 470.514 31.928 471.13 30.36C471.802 28.792 472.642 26.944 473.65 24.816C474.658 22.632 475.694 20.476 476.758 18.348C477.822 16.22 478.802 14.4 479.698 12.888C480.258 11.936 480.874 11.208 481.546 10.704C482.274 10.2 483.198 9.94799 484.318 9.94799C486.054 9.94799 487.342 10.508 488.182 11.628C489.022 12.692 489.442 14.12 489.442 15.912C489.442 16.304 489.078 17.116 488.35 18.348C487.622 19.524 486.698 20.924 485.578 22.548C484.458 24.172 483.282 25.824 482.05 27.504C480.874 29.184 479.782 30.696 478.774 32.04C477.822 33.328 477.122 34.252 476.674 34.812C476.226 35.372 475.778 35.82 475.33 36.156C474.882 36.436 474.266 36.576 473.482 36.576ZM506.928 90C505.584 90 504.24 89.552 502.896 88.656C501.608 87.704 500.544 86.36 499.704 84.624C498.864 82.832 498.444 80.676 498.444 78.156C498.444 74.796 498.892 71.212 499.788 67.404C500.74 63.596 501.888 59.788 503.232 55.98C504.576 52.172 505.892 48.588 507.18 45.228C507.796 43.604 508.552 42.512 509.448 41.952C510.344 41.336 511.52 41.028 512.976 41.028C516.28 41.028 517.932 42.68 517.932 45.984C517.932 46.544 517.68 47.636 517.176 49.26C516.672 50.828 516 52.76 515.16 55.056C514.376 57.352 513.536 59.844 512.64 62.532C511.8 65.164 511.016 67.852 510.288 70.596C509.616 73.284 509.084 75.832 508.692 78.24C509.98 76.28 511.408 73.844 512.976 70.932C514.6 67.964 516.308 64.856 518.1 61.608C519.948 58.36 521.796 55.336 523.644 52.536C525.492 49.68 527.312 47.356 529.104 45.564C530.896 43.772 532.604 42.876 534.228 42.876C535.628 42.876 536.944 43.156 538.176 43.716C539.464 44.22 540.584 45.228 541.536 46.74C542.488 48.196 543.216 50.296 543.72 53.04C544.28 55.784 544.56 59.396 544.56 63.876C544.56 66.116 544.756 68.3 545.148 70.428C545.596 72.5 546.324 74.236 547.332 75.636C548.34 76.98 549.768 77.652 551.616 77.652C554.808 77.652 557.664 77.064 560.184 75.888C562.704 74.712 564.916 73.34 566.82 71.772C568.724 70.204 570.32 68.832 571.608 67.656C572.392 66.872 573.064 66.256 573.624 65.808C574.24 65.36 574.744 65.136 575.136 65.136C576.312 65.136 577.152 65.444 577.656 66.06C578.216 66.676 578.496 67.516 578.496 68.58C578.496 69.14 578.02 70.176 577.068 71.688C576.116 73.2 574.772 74.936 573.036 76.896C571.356 78.8 569.424 80.648 567.24 82.44C565.056 84.232 562.704 85.716 560.184 86.892C557.664 88.068 555.088 88.656 552.456 88.656C548.032 88.656 544.364 87.872 541.452 86.304C538.596 84.68 536.468 81.992 535.068 78.24C533.668 74.432 532.968 69.252 532.968 62.7C532.968 62.532 532.968 62.252 532.968 61.86C532.968 60.124 532.94 58.584 532.884 57.24C532.884 55.896 532.8 54.804 532.632 53.964C531.68 55.7 530.532 57.772 529.188 60.18C527.9 62.588 526.5 65.164 524.988 67.908C523.476 70.596 521.908 73.256 520.284 75.888C518.66 78.464 517.036 80.816 515.412 82.944C513.844 85.072 512.332 86.78 510.876 88.068C509.42 89.356 508.104 90 506.928 90Z" fill="#F0F0F0"/>
<path d="M256.504 138.06C259.584 130.724 262.3 123.164 264.652 115.38C265.1 113.812 265.744 112.608 266.584 111.768C267.48 110.928 268.712 110.508 270.28 110.508C271.568 110.508 272.548 110.9 273.22 111.684C273.892 112.412 274.228 113.42 274.228 114.708C274.228 115.772 273.78 117.676 272.884 120.42C271.988 123.108 270.896 126.524 269.608 130.668C268.32 134.812 267.032 139.6 265.744 145.032C264.456 150.464 263.364 156.428 262.468 162.924C261.572 169.42 261.124 176.364 261.124 183.756C261.124 185.772 260.732 187.424 259.948 188.712C259.22 190.056 257.932 190.728 256.084 190.728C254.068 190.728 252.584 190.028 251.632 188.628C250.736 187.228 250.288 185.436 250.288 183.252C250.288 178.94 250.428 175.356 250.708 172.5C251.044 169.588 251.38 167.096 251.716 165.024C248.972 169.728 246.06 173.788 242.98 177.204C239.956 180.564 237.044 183.14 234.244 184.932C231.444 186.78 229.036 187.704 227.02 187.704C223.716 187.704 221.028 186.78 218.956 184.932C216.884 183.084 215.848 180.284 215.848 176.532C215.848 173.62 216.548 170.624 217.948 167.544C219.348 164.408 221.196 161.328 223.492 158.304C225.788 155.28 228.308 152.452 231.052 149.82C233.852 147.132 236.652 144.78 239.452 142.764C242.252 140.692 244.856 139.068 247.264 137.892C249.672 136.716 251.632 136.128 253.144 136.128C254.824 136.128 255.944 136.772 256.504 138.06ZM254.572 142.596C254.236 142.82 253.872 143.044 253.48 143.268C253.144 143.436 252.808 143.632 252.472 143.856C250.344 145.2 248.076 146.824 245.668 148.728C243.26 150.576 240.88 152.648 238.528 154.944C236.176 157.184 234.02 159.536 232.06 162C230.156 164.408 228.616 166.816 227.44 169.224C226.32 171.576 225.76 173.844 225.76 176.028C225.76 176.42 225.928 176.7 226.264 176.868C226.6 177.036 226.908 177.12 227.188 177.12C229.148 177.12 231.248 176.252 233.488 174.516C235.784 172.78 238.108 170.372 240.46 167.292C242.868 164.156 245.248 160.488 247.6 156.288C250.008 152.088 252.332 147.524 254.572 142.596ZM290.179 185.856C286.707 185.856 283.907 184.652 281.779 182.244C279.651 179.78 278.587 175.832 278.587 170.4C278.587 166.928 278.979 163.456 279.763 159.984C280.603 156.456 281.751 153.124 283.207 149.988C284.719 146.796 286.455 143.968 288.415 141.504C290.431 139.04 292.643 137.108 295.051 135.708C297.459 134.252 299.951 133.524 302.527 133.524C306.895 133.524 310.311 134.7 312.775 137.052C315.239 139.404 316.471 142.4 316.471 146.04C316.471 148.84 315.687 151.388 314.119 153.684C312.607 155.924 310.535 157.94 307.903 159.732C305.271 161.524 302.331 163.148 299.083 164.604C295.835 166.06 292.503 167.376 289.087 168.552C288.807 170.568 288.667 172.36 288.667 173.928C288.667 174.88 289.199 175.356 290.263 175.356C292.783 175.356 295.471 174.964 298.327 174.18C301.239 173.34 304.179 172.276 307.147 170.988C310.115 169.644 312.971 168.272 315.715 166.872C318.459 165.416 320.951 164.044 323.191 162.756C325.487 161.412 327.363 160.348 328.819 159.564C330.331 158.724 331.311 158.304 331.759 158.304C332.991 158.304 333.887 158.668 334.447 159.396C335.007 160.124 335.287 160.908 335.287 161.748C335.287 162.14 334.531 163.008 333.019 164.352C331.563 165.696 329.547 167.292 326.971 169.14C324.451 170.932 321.595 172.808 318.403 174.768C315.267 176.672 311.991 178.492 308.575 180.228C305.215 181.908 301.939 183.252 298.747 184.26C295.611 185.324 292.755 185.856 290.179 185.856ZM290.515 161.076C292.811 159.732 295.079 158.332 297.319 156.876C299.615 155.364 301.519 153.684 303.031 151.836C304.543 149.932 305.299 147.72 305.299 145.2C305.299 144.472 305.103 143.996 304.711 143.772C304.319 143.492 303.759 143.352 303.031 143.352C301.071 143.352 299.279 144.22 297.655 145.956C296.087 147.692 294.687 149.932 293.455 152.676C292.279 155.364 291.299 158.164 290.515 161.076ZM346.731 187.2C341.691 187.2 337.715 185.66 334.803 182.58C331.947 179.444 330.519 174.992 330.519 169.224C330.519 166.088 330.939 162.42 331.779 158.22C332.619 153.964 333.711 149.484 335.055 144.78C336.455 140.02 337.939 135.316 339.507 130.668C341.131 126.02 342.727 121.708 344.295 117.732C345.863 113.756 347.235 110.424 348.411 107.736C349.419 105.664 350.847 104.628 352.695 104.628C353.871 104.628 354.823 104.992 355.551 105.72C356.335 106.448 356.727 107.624 356.727 109.248C356.727 110.032 356.335 111.74 355.551 114.372C354.767 117.004 353.731 120.252 352.443 124.116C351.211 127.924 349.867 132.04 348.411 136.464C347.011 140.888 345.667 145.34 344.379 149.82C343.147 154.3 342.139 158.528 341.355 162.504C340.571 166.424 340.179 169.756 340.179 172.5C340.179 173.62 340.487 174.516 341.103 175.188C341.775 175.86 342.643 176.196 343.707 176.196C346.003 176.196 348.355 175.776 350.763 174.936C353.227 174.096 355.635 173.032 357.987 171.744C360.395 170.456 362.663 169.084 364.791 167.628C366.919 166.172 368.823 164.8 370.503 163.512C372.239 162.168 373.639 161.104 374.703 160.32C376.103 159.256 377.055 158.724 377.559 158.724C379.463 158.724 380.415 159.648 380.415 161.496C380.415 161.944 379.855 162.868 378.735 164.268C377.783 165.5 376.439 167.068 374.703 168.972C372.967 170.876 370.951 172.892 368.655 175.02C366.415 177.092 364.007 179.052 361.431 180.9C358.911 182.748 356.391 184.26 353.871 185.436C351.351 186.612 348.971 187.2 346.731 187.2ZM453.311 167.964C455.047 167.964 456.279 168.44 457.007 169.392C457.735 170.288 458.099 171.24 458.099 172.248C458.099 173.648 457.399 175.132 455.999 176.7C454.599 178.268 452.779 179.724 450.539 181.068C448.355 182.356 446.003 183.42 443.483 184.26C440.963 185.1 438.555 185.52 436.259 185.52C432.843 185.52 429.567 184.596 426.431 182.748C423.351 180.844 420.831 178.184 418.871 174.768C416.967 171.352 416.015 167.292 416.015 162.588C416.015 158.724 416.743 154.888 418.199 151.08C419.711 147.272 421.699 143.604 424.163 140.076C426.683 136.548 429.427 133.272 432.395 130.248C435.419 127.224 438.443 124.592 441.467 122.352C444.547 120.112 447.375 118.376 449.951 117.144C452.527 115.856 454.599 115.212 456.167 115.212C458.127 115.212 459.583 115.716 460.535 116.724C461.543 117.676 462.047 119.02 462.047 120.756C462.047 122.156 461.767 123.248 461.207 124.032C460.703 124.76 459.891 125.404 458.771 125.964C455.187 127.812 451.547 130.052 447.851 132.684C444.211 135.316 440.879 138.228 437.855 141.42C434.831 144.556 432.395 147.86 430.547 151.332C428.699 154.804 427.775 158.332 427.775 161.916C427.775 165.836 428.559 168.804 430.127 170.82C431.695 172.836 433.823 173.844 436.511 173.844C437.855 173.844 439.311 173.564 440.879 173.004C442.447 172.388 443.987 171.688 445.499 170.904C447.067 170.12 448.523 169.448 449.867 168.888C451.267 168.272 452.415 167.964 453.311 167.964ZM502.607 186.78C501.319 186.78 500.143 186.248 499.079 185.184C498.071 184.176 497.567 182.468 497.567 180.06C497.567 178.268 497.707 175.776 497.987 172.584C498.323 169.336 498.939 165.164 499.835 160.068C497.875 164.1 495.831 167.684 493.703 170.82C491.575 173.956 489.475 176.42 487.403 178.212C485.387 179.948 483.455 180.816 481.607 180.816C478.639 180.816 476.287 179.92 474.551 178.128C472.815 176.28 471.947 172.836 471.947 167.796C471.947 165.388 472.143 162.672 472.535 159.648C472.983 156.624 473.543 153.6 474.215 150.576C474.887 147.552 475.559 144.864 476.231 142.512C476.959 140.104 477.603 138.312 478.163 137.136C478.611 136.128 479.171 135.344 479.843 134.784C480.571 134.224 481.495 133.944 482.615 133.944C484.407 133.944 485.779 134.532 486.731 135.708C487.683 136.884 488.159 138.088 488.159 139.32C488.159 140.272 487.935 141.644 487.487 143.436C487.095 145.228 486.591 147.216 485.975 149.4C485.415 151.584 484.827 153.824 484.211 156.12C483.595 158.416 483.063 160.572 482.615 162.588C482.223 164.604 482.027 166.312 482.027 167.712C482.027 169.448 482.699 170.316 484.043 170.316C484.827 170.316 485.835 169.56 487.067 168.048C488.355 166.536 489.699 164.52 491.099 162C492.555 159.424 494.011 156.624 495.467 153.6C496.979 150.52 498.351 147.412 499.583 144.276C500.871 141.084 501.963 138.144 502.859 135.456C503.419 133.776 504.175 132.6 505.127 131.928C506.079 131.256 507.171 130.92 508.403 130.92C510.307 130.92 511.763 131.452 512.771 132.516C513.835 133.58 514.367 135.092 514.367 137.052C514.367 137.948 514.227 139.46 513.947 141.588C513.667 143.716 513.303 146.208 512.855 149.064C512.463 151.92 511.987 154.944 511.427 158.136C510.867 161.328 510.307 164.464 509.747 167.544C509.243 170.624 508.739 173.452 508.235 176.028C507.731 178.548 507.311 180.564 506.975 182.076C506.415 184.316 505.743 185.66 504.959 186.108C504.175 186.556 503.391 186.78 502.607 186.78ZM528.547 186.696C527.147 186.696 525.943 186.192 524.935 185.184C523.983 184.176 523.507 182.72 523.507 180.816C523.507 179.976 523.619 178.604 523.843 176.7C524.123 174.74 524.459 172.5 524.851 169.98C525.299 167.46 525.719 164.828 526.111 162.084C526.559 159.34 526.923 156.736 527.203 154.272C527.539 151.808 527.763 149.708 527.875 147.972C527.987 145.844 528.547 144.332 529.555 143.436C530.563 142.484 531.767 142.008 533.167 142.008C534.287 142.008 535.295 142.288 536.191 142.848C537.143 143.352 537.731 144.444 537.955 146.124C538.235 147.748 538.263 150.1 538.039 153.18C540.503 148.7 542.995 144.696 545.515 141.168C548.091 137.64 550.779 134.84 553.579 132.768C558.227 129.24 562.427 127.476 566.179 127.476C568.307 127.476 569.707 127.952 570.379 128.904C571.051 129.856 571.387 130.836 571.387 131.844C571.387 132.516 571.219 133.132 570.883 133.692C570.603 134.252 569.987 134.84 569.035 135.456C568.083 136.072 566.627 136.884 564.667 137.892C562.035 139.236 559.431 141 556.855 143.184C554.335 145.368 551.815 148.168 549.295 151.584C546.775 155 544.227 159.2 541.651 164.184C539.075 169.168 536.415 175.104 533.671 181.992C533.167 183.896 532.439 185.156 531.487 185.772C530.591 186.388 529.611 186.696 528.547 186.696ZM568.61 186.192C566.818 186.192 565.194 185.688 563.738 184.68C562.282 183.728 561.134 182.468 560.294 180.9C559.454 179.276 559.034 177.54 559.034 175.692C559.034 172.22 559.79 168.832 561.302 165.528C562.87 162.224 564.914 159.088 567.434 156.12C569.954 153.152 572.698 150.436 575.666 147.972C578.69 145.452 581.686 143.296 584.654 141.504C587.678 139.712 590.422 138.312 592.886 137.304C595.406 136.296 597.366 135.792 598.766 135.792C600.39 135.792 601.706 136.156 602.714 136.884C603.778 137.556 604.31 138.62 604.31 140.076C604.31 140.524 604.198 140.888 603.974 141.168C604.702 141.336 605.29 141.756 605.738 142.428C606.186 143.1 606.41 144.108 606.41 145.452C606.41 146.012 606.27 147.468 605.99 149.82C605.71 152.172 605.402 155.028 605.066 158.388C604.786 161.748 604.646 165.248 604.646 168.888C604.646 169.448 604.73 169.952 604.898 170.4C605.066 170.792 605.43 170.988 605.99 170.988C608.23 170.988 610.498 170.54 612.794 169.644C615.146 168.692 617.414 167.544 619.598 166.2C621.838 164.8 623.854 163.428 625.646 162.084C627.494 160.684 629.034 159.536 630.266 158.64C631.554 157.688 632.394 157.212 632.786 157.212C634.69 157.212 635.642 158.164 635.642 160.068C635.642 160.572 635.026 161.636 633.794 163.26C632.618 164.828 630.994 166.648 628.922 168.72C626.85 170.736 624.526 172.752 621.95 174.768C619.43 176.728 616.798 178.352 614.054 179.64C611.366 180.928 608.762 181.572 606.242 181.572C603.162 181.572 600.81 180.844 599.186 179.388C597.618 177.932 596.498 175.972 595.826 173.508C595.21 170.988 594.874 168.16 594.818 165.024C591.962 169.112 588.994 172.752 585.914 175.944C582.89 179.08 579.894 181.572 576.926 183.42C573.958 185.268 571.186 186.192 568.61 186.192ZM598.346 144.108C592.858 146.74 587.93 149.764 583.562 153.18C579.194 156.54 575.722 160.068 573.146 163.764C570.626 167.46 569.366 171.016 569.366 174.432C569.366 175.384 569.814 175.86 570.71 175.86C571.774 175.86 573.174 175.244 574.91 174.012C576.702 172.78 578.634 171.156 580.706 169.14C582.778 167.068 584.85 164.772 586.922 162.252C588.994 159.676 590.926 157.044 592.718 154.356C594.51 151.668 595.938 149.092 597.002 146.628C597.394 145.732 597.842 144.892 598.346 144.108ZM642.554 185.772C638.578 185.772 635.386 184.372 632.978 181.572C630.57 178.716 629.366 174.908 629.366 170.148C629.366 168.636 629.562 167.096 629.954 165.528C630.402 163.96 630.934 162.504 631.55 161.16C631.214 160.656 630.934 160.012 630.71 159.228C630.542 158.388 630.458 157.408 630.458 156.288C630.458 152.648 631.102 149.316 632.39 146.292C633.678 143.212 635.414 140.552 637.598 138.312C639.782 136.072 642.19 134.336 644.822 133.104C647.454 131.872 650.114 131.256 652.802 131.256C657.394 131.256 661.146 132.796 664.058 135.876C667.026 138.956 668.51 143.744 668.51 150.24C668.51 153.488 668.006 156.792 666.998 160.152C665.99 163.512 664.618 166.732 662.882 169.812C661.202 172.836 659.242 175.552 657.002 177.96C654.818 180.368 652.466 182.272 649.946 183.672C647.482 185.072 645.018 185.772 642.554 185.772ZM641.21 157.38C641.49 157.996 641.63 158.724 641.63 159.564C641.63 160.404 641.462 161.272 641.126 162.168C640.79 163.064 640.454 164.268 640.118 165.78C639.782 167.236 639.614 169.336 639.614 172.08C639.614 172.808 639.698 173.424 639.866 173.928C640.09 174.376 640.566 174.6 641.294 174.6C643.198 174.6 644.99 173.984 646.67 172.752C648.406 171.52 649.946 169.896 651.29 167.88C652.69 165.864 653.866 163.624 654.818 161.16C655.826 158.64 656.582 156.092 657.086 153.516C657.646 150.884 657.926 148.448 657.926 146.208C657.926 144.752 657.646 143.744 657.086 143.184C656.526 142.624 655.546 142.344 654.146 142.344C652.242 142.344 650.282 142.96 648.266 144.192C646.306 145.368 644.654 146.992 643.31 149.064C641.966 151.08 641.294 153.376 641.294 155.952C641.294 156.456 641.266 156.932 641.21 157.38Z" fill="#F0F0F0"/>
</g>
</g>
<defs>
<clipPath id="clip0_22_3">
<rect width="673" height="200" fill="white"/>
</clipPath>
<clipPath id="clip1_22_3">
<rect width="459" height="182" fill="white" transform="translate(214 9)"/>
</clipPath>
</defs>
</svg>
