<svg width="40pt" height="25pt" viewBox="0 0 40 25" xmlns="http://www.w3.org/2000/svg"><g id="fontsvg1677202978557" stroke-linecap="round" fill-rule="evenodd" fill="#000000"><path d="M 8.4 18 L 8.61 17.73 A 17.527 17.527 0 0 1 7.548 16.947 A 21.097 21.097 0 0 1 6.9 16.41 A 6.23 6.23 0 0 1 6.004 15.467 A 5.233 5.233 0 0 1 5.55 14.76 A 15.813 15.813 0 0 0 5.233 16.559 A 13.334 13.334 0 0 0 5.16 17.46 A 55.294 55.294 0 0 0 5.105 19.252 A 47.636 47.636 0 0 0 5.1 19.92 Q 5.1 20.34 5.31 20.715 Q 5.49 21.037 5.516 21.325 A 1.071 1.071 0 0 1 5.52 21.42 Q 5.52 21.87 5.1 21.96 A 6.296 6.296 0 0 1 4.757 20.9 A 5.806 5.806 0 0 1 4.74 20.82 Q 4.62 20.25 4.56 19.68 Q 4.56 20.28 4.62 20.85 Q 4.71 21.45 4.92 22.05 L 4.47 22.23 L 4.74 22.59 Q 4.68 22.92 4.485 23.205 A 0.634 0.634 0 0 1 4.02 23.483 A 0.95 0.95 0 0 1 3.9 23.49 Q 3.42 23.49 3.135 22.965 A 4.097 4.097 0 0 1 2.88 22.389 Q 2.782 22.113 2.706 21.796 A 6.803 6.803 0 0 1 2.685 21.705 Q 2.52 20.97 2.475 20.205 A 34.473 34.473 0 0 1 2.455 19.839 Q 2.431 19.33 2.43 18.955 A 11.721 11.721 0 0 1 2.43 18.93 Q 2.43 17.91 2.445 16.92 Q 2.46 15.93 2.52 14.91 Q 2.37 15.87 2.355 16.86 Q 2.34 17.85 2.34 18.84 Q 2.34 19.89 2.46 21 Q 2.58 22.11 2.82 23.13 A 2.482 2.482 0 0 1 2.368 22.579 A 2.247 2.247 0 0 1 2.235 22.32 Q 2.04 21.87 1.935 21.375 Q 1.83 20.88 1.785 20.37 A 39.287 39.287 0 0 1 1.718 19.501 A 35.738 35.738 0 0 1 1.71 19.38 L 2.07 19.29 Q 1.95 18.84 1.92 18.375 Q 1.89 17.91 1.89 17.43 Q 1.89 16.38 2.04 15.375 Q 2.19 14.37 2.19 13.32 L 2.19 12.96 L 2.16 12.21 L 1.98 12.21 Q 1.92 13.65 1.815 15.09 Q 1.71 16.53 1.68 18 A 6.044 6.044 0 0 1 1.653 17.602 A 5.12 5.12 0 0 1 1.65 17.43 L 1.65 16.86 Q 1.65 14.67 1.875 12.555 Q 2.1 10.44 2.34 8.28 Q 2.4 7.59 2.7 7.005 Q 3 6.42 3.18 5.79 A 0.511 0.511 0 0 0 3.353 5.873 A 0.698 0.698 0 0 0 3.48 5.895 Q 3.66 5.91 3.81 5.925 Q 3.96 5.94 4.08 6.03 A 0.277 0.277 0 0 1 4.175 6.164 Q 4.192 6.212 4.197 6.272 A 0.649 0.649 0 0 1 4.2 6.33 Q 4.2 6.45 4.17 6.57 L 4.11 6.81 L 4.38 6.9 A 2.917 2.917 0 0 1 4.707 6.48 A 3.577 3.577 0 0 1 4.92 6.27 Q 5.25 5.97 5.67 5.97 A 0.632 0.632 0 0 1 5.867 5.999 Q 6.046 6.057 6.146 6.233 A 0.658 0.658 0 0 1 6.15 6.24 Q 6.3 6.51 6.3 6.81 A 2.703 2.703 0 0 1 6.298 6.907 Q 6.292 7.066 6.27 7.364 A 37.946 37.946 0 0 1 6.255 7.56 Q 6.216 8.05 6.156 8.673 A 90.411 90.411 0 0 1 6.135 8.88 A 281.436 281.436 0 0 1 6.056 9.656 A 342.723 342.723 0 0 1 5.97 10.485 A 342.664 342.664 0 0 0 5.884 11.314 A 281.275 281.275 0 0 0 5.805 12.09 Q 5.73 12.84 5.67 13.365 Q 5.614 13.856 5.61 13.993 A 0.653 0.653 0 0 0 5.61 14.01 L 6.33 12.39 A 9.466 9.466 0 0 1 6.265 12.58 Q 6.238 12.654 6.213 12.719 A 4.497 4.497 0 0 1 6.165 12.84 Q 6.09 13.02 6.03 13.2 Q 5.97 13.38 5.865 13.59 A 10.196 10.196 0 0 1 5.808 13.703 Q 5.728 13.857 5.617 14.062 A 31.711 31.711 0 0 1 5.58 14.13 L 5.58 14.55 L 6.57 12.3 Q 7.05 12.3 7.515 12.285 Q 7.98 12.27 8.46 12.18 L 8.76 12.12 A 49.129 49.129 0 0 1 8.448 12.119 Q 8.144 12.117 7.916 12.111 A 13.76 13.76 0 0 1 7.725 12.105 Q 7.35 12.09 7.02 12.03 Q 8.22 12.03 9.405 11.985 Q 10.59 11.94 11.82 11.94 Q 12.9 11.94 13.965 11.88 A 6.33 6.33 0 0 0 15.097 11.718 A 5.135 5.135 0 0 0 15.885 11.46 Q 16.74 11.1 17.28 10.35 A 2.542 2.542 0 0 0 17.64 9.605 Q 17.82 9.018 17.82 8.22 A 9.029 9.029 0 0 0 17.777 7.314 Q 17.696 6.511 17.46 5.94 A 3.457 3.457 0 0 0 16.997 5.132 A 2.886 2.886 0 0 0 16.425 4.575 A 3.368 3.368 0 0 0 15.556 4.123 A 4.7 4.7 0 0 0 14.73 3.915 A 12.3 12.3 0 0 0 13.652 3.792 Q 13.106 3.753 12.501 3.75 A 19.98 19.98 0 0 0 12.42 3.75 Q 9.78 3.75 7.11 3.99 Q 4.44 4.23 1.89 4.89 Q 1.834 4.666 1.804 4.481 A 3.494 3.494 0 0 1 1.8 4.455 Q 1.77 4.26 1.65 4.11 A 0.221 0.221 0 0 1 1.7 3.974 Q 1.779 3.872 1.98 3.78 A 3.283 3.283 0 0 1 2.38 3.63 A 4.243 4.243 0 0 1 2.73 3.54 A 16.577 16.577 0 0 1 3.237 3.439 A 13.769 13.769 0 0 1 3.525 3.39 A 21.451 21.451 0 0 0 3.677 3.365 Q 3.882 3.331 3.982 3.309 A 1.384 1.384 0 0 0 4.02 3.3 L 4.02 2.94 Q 3.827 2.968 3.379 2.995 A 27.613 27.613 0 0 1 3.3 3 Q 2.79 3.03 2.19 3.03 A 11.023 11.023 0 0 1 1.317 2.997 A 8.812 8.812 0 0 1 0.69 2.925 A 2.277 2.277 0 0 1 0.456 2.878 Q 0 2.758 0 2.49 Q 0 2.14 0.751 1.819 A 4.304 4.304 0 0 1 0.795 1.8 A 9.067 9.067 0 0 1 1.452 1.559 Q 2.051 1.363 2.82 1.185 A 28.888 28.888 0 0 1 4.28 0.888 A 36.815 36.815 0 0 1 5.52 0.69 A 136.412 136.412 0 0 1 7.666 0.4 A 121.444 121.444 0 0 1 8.355 0.315 Q 9.72 0.15 10.785 0.075 A 61.106 61.106 0 0 1 11.27 0.043 Q 11.953 0 12.27 0 A 18.554 18.554 0 0 1 14.325 0.109 A 14.009 14.009 0 0 1 16.17 0.435 Q 17.91 0.87 19.125 1.86 A 6.11 6.11 0 0 1 20.723 3.875 A 7.464 7.464 0 0 1 20.985 4.455 Q 21.517 5.778 21.61 7.6 A 15.625 15.625 0 0 1 21.63 8.4 A 8.663 8.663 0 0 1 21.509 9.888 Q 21.354 10.778 21 11.509 A 5.266 5.266 0 0 1 20.895 11.715 Q 20.16 13.08 18.93 13.935 Q 17.7 14.79 16.11 15.195 Q 14.52 15.6 12.81 15.6 Q 12.33 15.6 11.865 15.57 Q 11.4 15.54 10.92 15.51 A 4.26 4.26 0 0 0 11.112 15.624 Q 11.333 15.749 11.665 15.912 A 23.46 23.46 0 0 0 12.015 16.08 Q 12.78 16.44 13.725 16.89 A 1259.263 1259.263 0 0 1 15.193 17.59 A 1445.182 1445.182 0 0 1 15.705 17.835 A 40.658 40.658 0 0 1 16.691 18.323 A 31.135 31.135 0 0 1 17.58 18.795 A 16.659 16.659 0 0 1 18.168 19.135 Q 18.452 19.308 18.69 19.472 A 7.946 7.946 0 0 1 18.96 19.665 A 3.697 3.697 0 0 1 19.157 19.823 Q 19.5 20.119 19.5 20.31 L 19.35 20.49 Q 18.36 19.77 17.31 19.23 Q 16.26 18.69 15.165 18.21 Q 14.07 17.73 12.96 17.28 A 20.446 20.446 0 0 1 10.991 16.304 A 22.328 22.328 0 0 1 10.86 16.23 A 19.857 19.857 0 0 0 12.773 17.223 A 18.204 18.204 0 0 0 12.9 17.28 L 15.03 18.24 Q 16.11 18.72 17.145 19.245 Q 18.18 19.77 19.14 20.49 L 18.75 20.85 Q 18.96 21 19.245 21.255 Q 19.53 21.51 19.785 21.81 A 4.177 4.177 0 0 1 20.138 22.288 A 3.711 3.711 0 0 1 20.22 22.425 Q 20.4 22.74 20.4 23.01 Q 20.4 23.4 20.04 23.4 Q 19.715 23.4 19.341 23.229 A 2.617 2.617 0 0 1 19.26 23.19 Q 18.84 22.98 18.51 22.86 A 2.092 2.092 0 0 0 18.268 22.506 Q 18.137 22.35 17.964 22.192 A 4.721 4.721 0 0 0 17.67 21.945 Q 17.07 21.48 16.23 21.03 Q 15.39 20.58 14.43 20.16 Q 13.47 19.74 12.54 19.335 A 280.791 280.791 0 0 1 11.64 18.941 A 229.438 229.438 0 0 1 10.8 18.57 Q 10.29 18.355 9.9 18.141 A 6.561 6.561 0 0 1 9.81 18.09 Q 10.68 18.6 11.64 19.02 Q 12.75 19.53 13.875 20.07 Q 15 20.61 16.05 21.21 Q 17.1 21.81 17.97 22.59 A 11.735 11.735 0 0 1 17.319 22.388 Q 16.982 22.274 16.598 22.125 A 29.21 29.21 0 0 1 15.78 21.795 A 47.712 47.712 0 0 1 13.436 20.732 A 52.332 52.332 0 0 1 13.095 20.565 Q 11.73 19.89 10.455 19.2 A 47.358 47.358 0 0 1 9.848 18.866 Q 9.106 18.451 8.57 18.11 A 15.742 15.742 0 0 1 8.4 18 Z M 38.19 20.1 L 38.64 20.61 Q 38.58 21.36 38.055 21.915 A 4.263 4.263 0 0 1 37.135 22.645 A 5.124 5.124 0 0 1 36.765 22.845 Q 36 23.22 35.145 23.4 A 9.235 9.235 0 0 1 34.428 23.523 Q 33.988 23.58 33.6 23.58 Q 31.56 23.58 29.94 22.605 Q 28.32 21.63 27.18 20.085 Q 26.04 18.54 25.38 16.65 A 13.575 13.575 0 0 1 24.753 14.05 A 11.997 11.997 0 0 1 24.66 13.05 A 12.588 12.588 0 0 0 25.201 16.276 A 14.262 14.262 0 0 0 25.35 16.74 Q 26.01 18.66 27.15 20.22 Q 28.29 21.78 29.94 22.755 Q 31.59 23.73 33.66 23.73 Q 34.8 23.73 35.88 23.37 Q 36.96 23.01 37.89 22.38 Q 37.2 23.43 36.06 23.88 Q 34.92 24.33 33.72 24.33 A 9.74 9.74 0 0 1 33.699 24.33 Q 32.863 24.328 32.107 24.182 A 7.144 7.144 0 0 1 31.23 23.955 A 7.339 7.339 0 0 1 29.639 23.202 A 8.884 8.884 0 0 1 29.01 22.77 L 28.89 22.29 Q 27.66 21.54 26.775 20.43 Q 25.89 19.32 25.335 18.03 Q 24.78 16.74 24.525 15.33 Q 24.27 13.92 24.27 12.51 Q 24.27 11.01 24.555 9.525 Q 24.84 8.04 25.35 6.6 Q 25.23 6.6 25.23 6.51 Q 24.6 7.89 24.3 9.36 Q 24 10.83 24 12.36 Q 24 15.27 25.14 17.955 Q 26.28 20.64 28.53 22.5 Q 27.36 21.6 26.475 20.43 Q 25.59 19.26 25.02 17.925 Q 24.45 16.59 24.165 15.15 Q 23.88 13.71 23.88 12.24 A 15.215 15.215 0 0 1 24.305 8.718 A 17.227 17.227 0 0 1 24.435 8.205 Q 24.99 6.15 26.115 4.47 Q 27.24 2.79 28.92 1.725 A 6.833 6.833 0 0 1 31.761 0.727 A 8.687 8.687 0 0 1 32.85 0.66 Q 33.87 0.66 34.785 0.99 Q 35.7 1.32 36.51 1.86 Q 37.32 2.4 38.025 3.09 Q 38.73 3.78 39.36 4.5 L 38.73 5.04 Q 38.31 4.89 37.935 4.575 A 7.217 7.217 0 0 1 37.42 4.099 A 6.278 6.278 0 0 1 37.26 3.93 L 37.08 4.14 A 5.945 5.945 0 0 1 37.582 4.814 A 7.149 7.149 0 0 1 37.8 5.175 A 2.515 2.515 0 0 1 38.101 6.02 A 2.355 2.355 0 0 1 38.13 6.39 L 37.8 6.93 Q 37.458 6.904 36.966 6.566 A 4.6 4.6 0 0 1 36.825 6.465 Q 36.24 6.03 35.535 5.535 Q 34.83 5.04 34.095 4.62 A 3.496 3.496 0 0 0 33.472 4.337 A 2.516 2.516 0 0 0 32.67 4.2 A 3.072 3.072 0 0 0 31.646 4.367 A 2.799 2.799 0 0 0 31.065 4.65 A 5.03 5.03 0 0 0 30.046 5.518 A 5.902 5.902 0 0 0 29.79 5.82 A 7.13 7.13 0 0 0 29.028 7.018 A 8.361 8.361 0 0 0 28.815 7.47 Q 28.41 8.4 28.155 9.36 A 17.223 17.223 0 0 0 27.81 10.948 A 15.5 15.5 0 0 0 27.765 11.235 A 14.608 14.608 0 0 0 27.683 11.89 Q 27.65 12.214 27.637 12.504 A 7.897 7.897 0 0 0 27.63 12.84 A 8.561 8.561 0 0 0 27.724 14.07 Q 27.812 14.675 27.982 15.332 A 14.001 14.001 0 0 0 28.005 15.42 Q 28.38 16.83 29.115 18.045 Q 29.85 19.26 30.93 20.07 Q 32.01 20.88 33.39 20.88 A 6.458 6.458 0 0 0 34.402 20.798 A 7.42 7.42 0 0 0 34.695 20.745 Q 35.37 20.61 35.91 20.28 L 36.15 20.55 Q 35.01 21.42 33.54 21.42 Q 32.1 21.42 30.9 20.73 Q 31.47 21.12 32.16 21.3 Q 32.91 21.51 33.66 21.51 Q 35.04 21.51 36.24 20.73 L 36.51 21.12 A 3.832 3.832 0 0 1 36.848 20.794 Q 37.035 20.633 37.26 20.475 A 2.277 2.277 0 0 1 37.747 20.212 A 1.877 1.877 0 0 1 38.19 20.1 Z M 17.97 6.72 L 17.79 6.72 Q 17.97 7.44 17.97 8.19 A 6.158 6.158 0 0 1 17.918 9.015 Q 17.862 9.43 17.745 9.772 A 2.73 2.73 0 0 1 17.49 10.32 Q 17.01 11.1 16.2 11.505 A 4.738 4.738 0 0 1 15.199 11.866 A 6.402 6.402 0 0 1 14.295 12.015 A 23.152 23.152 0 0 1 12.726 12.11 A 27.366 27.366 0 0 1 11.97 12.12 A 52.162 52.162 0 0 0 11.045 12.129 A 58.113 58.113 0 0 0 10.725 12.135 Q 10.08 12.15 9.42 12.15 A 97.855 97.855 0 0 1 10.579 12.204 A 109.834 109.834 0 0 1 10.98 12.225 Q 11.79 12.27 12.63 12.27 Q 13.68 12.27 14.685 12.135 A 5.44 5.44 0 0 0 15.772 11.879 A 4.506 4.506 0 0 0 16.47 11.565 Q 17.25 11.13 17.715 10.365 Q 18.18 9.6 18.18 8.34 A 5.368 5.368 0 0 0 18.131 7.603 A 4.91 4.91 0 0 0 18.12 7.53 Q 18.06 7.14 17.97 6.72 Z M 14.07 12.69 L 13.44 12.69 Q 13.193 12.69 12.874 12.683 A 42.683 42.683 0 0 1 12.57 12.675 A 47.999 47.999 0 0 1 12.038 12.656 A 61.3 61.3 0 0 1 11.46 12.63 A 44.76 44.76 0 0 0 10.526 12.594 A 51.49 51.49 0 0 0 10.2 12.585 Q 9.54 12.57 8.91 12.57 Q 8.22 12.57 7.65 12.6 Q 7.08 12.63 6.66 12.78 Q 7.86 12.84 9.105 12.855 Q 10.35 12.87 11.67 12.87 Q 12.45 12.87 13.23 12.825 A 10.303 10.303 0 0 0 14.628 12.651 A 9.461 9.461 0 0 0 14.73 12.63 Q 14.4 12.69 14.07 12.69 Z M 27.18 14.58 Q 27.33 16.32 28.2 17.91 Q 29.07 19.47 30.48 20.43 Q 29.07 19.44 28.26 17.88 Q 27.42 16.29 27.18 14.58 Z M 5.52 15.09 A 23.282 23.282 0 0 0 6.505 16.288 A 20.817 20.817 0 0 0 6.735 16.545 A 10.542 10.542 0 0 0 7.89 17.631 A 11.862 11.862 0 0 0 8.13 17.82 A 10.966 10.966 0 0 1 7.27 17.14 A 13.818 13.818 0 0 1 6.675 16.59 A 6.974 6.974 0 0 1 5.957 15.773 A 5.568 5.568 0 0 1 5.52 15.09 Z M 10.44 14.82 L 10.2 14.82 Q 10.08 14.82 9.96 14.85 Q 10.56 14.91 11.16 14.94 Q 11.73 14.97 12.24 15 Q 11.82 14.97 11.4 14.91 Q 10.92 14.82 10.44 14.82 Z M 6.57 12.87 L 6.57 12.78 Q 6.545 12.854 6.451 13.047 A 11.163 11.163 0 0 1 6.405 13.14 A 10.239 10.239 0 0 0 6.236 13.495 A 12.373 12.373 0 0 0 6.135 13.725 A 53.649 53.649 0 0 1 6.004 14.029 A 42.958 42.958 0 0 1 5.88 14.31 A 3.867 3.867 0 0 0 5.839 14.405 Q 5.777 14.557 5.764 14.634 A 0.219 0.219 0 0 0 5.76 14.67 L 5.82 14.61 L 6.57 12.87 Z M 10.56 16.05 L 9.69 15.42 L 9.6 15.42 A 6.659 6.659 0 0 0 10.156 15.811 A 8.289 8.289 0 0 0 10.56 16.05 Z M 6.06 14.79 L 6 14.91 A 1.25 1.25 0 0 0 6.056 15.029 Q 6.111 15.133 6.195 15.255 Q 6.326 15.444 6.527 15.647 A 4.091 4.091 0 0 0 6.54 15.66 Q 6.36 15.45 6.24 15.225 A 2.474 2.474 0 0 1 6.124 14.977 A 1.96 1.96 0 0 1 6.06 14.79 Z M 9.69 18.03 L 9.54 17.94 Q 9.628 17.999 9.687 18.029 A 0.681 0.681 0 0 0 9.69 18.03 Z" vector-effect="non-scaling-stroke"/></g></svg>