<svg width="128" height="128" viewBox="0 0 128 128" fill="none" xmlns="http://www.w3.org/2000/svg">
<g clip-path="url(#clip0_5_132)">
<path d="M84.8871 5.09325L64.0826 1.79814C63.1066 1.64356 62.1093 1.88301 61.3099 2.46381C60.5105 3.0446 59.9745 3.91917 59.82 4.89512C59.6654 5.87106 59.9048 6.86844 60.4856 7.66784C61.0664 8.46724 61.941 9.00317 62.9169 9.15775L63.8764 9.30638L54.4227 39.982L42.1236 53.3191C41.6257 53.8592 41.2975 54.5338 41.1799 55.2589L32.5927 109.434C32.1294 112.36 32.8473 115.351 34.5887 117.747C36.33 120.144 38.9521 121.751 41.8782 122.215L68.7941 126.478C71.7202 126.941 74.7105 126.223 77.1072 124.482C79.504 122.74 81.1109 120.118 81.5744 117.192L90.1568 63.0261C90.2704 62.3001 90.1667 61.5567 89.8587 60.8896L82.283 44.4046L82.7712 12.309L83.7297 12.4642C84.2129 12.5407 84.7065 12.5213 85.1823 12.4071C85.658 12.2929 86.1066 12.0861 86.5024 11.7985C86.8982 11.5109 87.2335 11.1482 87.4892 10.731C87.7448 10.3139 87.9158 9.85042 87.9923 9.36718C88.0689 8.88394 88.0495 8.39036 87.9352 7.91462C87.821 7.43887 87.6142 6.99028 87.3267 6.59446C87.0391 6.19863 86.6763 5.86334 86.2592 5.6077C85.842 5.35206 85.3786 5.18109 84.8953 5.10455L84.8871 5.09325ZM46.3064 70.5029L80.5624 75.9285L75.9605 104.983L41.7046 99.5577L46.3064 70.5029ZM72.722 118.446C72.3275 118.734 71.8797 118.941 71.4047 119.055C70.9296 119.169 70.4366 119.188 69.9542 119.111L43.0514 114.85C42.0764 114.695 41.2028 114.159 40.6226 113.361C40.0424 112.562 39.803 111.566 39.9571 110.591L40.5399 106.911L74.7959 112.336L74.2018 116.024C74.0475 116.995 73.5155 117.866 72.722 118.446ZM74.8147 45.1245C74.8057 45.6801 74.9224 46.2306 75.1561 46.7347L82.6156 62.9647L81.727 68.5754L47.471 63.1498L48.3597 57.5391L60.4694 44.4086C60.8475 44.0013 61.1286 43.5139 61.2917 42.9827L71.3075 10.4834L75.3319 11.1208L74.8147 45.1245Z" fill="#F0F0F0"/>
</g>
<defs>
<clipPath id="clip0_5_132">
<rect width="128" height="128" fill="white"/>
</clipPath>
</defs>
</svg>
