<svg width="128" height="128" viewBox="0 0 128 128" fill="none" xmlns="http://www.w3.org/2000/svg">
<path d="M60.171 99.117C59.675 98.187 58.807 97.257 57.567 96.327C56.327 95.335 54.839 94.374 53.103 93.444C51.367 92.514 49.507 91.615 47.523 90.747C45.539 89.879 43.586 89.042 41.664 88.236C39.742 87.368 37.944 86.562 36.27 85.818C35.092 85.322 34.069 84.826 33.201 84.33C34.999 85.384 36.89 86.345 38.874 87.213C41.168 88.267 43.462 89.352 45.756 90.468C48.112 91.584 50.375 92.762 52.545 94.002C54.715 95.242 56.699 96.668 58.497 98.28C56.699 97.784 54.436 96.978 51.708 95.862C48.98 94.684 46.19 93.413 43.338 92.049C40.548 90.623 37.82 89.197 35.154 87.771C32.55 86.345 30.442 85.105 28.83 84.051L29.481 83.214C27.745 82.036 25.978 80.672 24.18 79.122C22.382 77.572 20.987 75.867 19.995 74.007C19.313 76.921 18.91 79.711 18.786 82.377C18.662 85.043 18.6 87.585 18.6 90.003C18.6 90.871 18.817 91.708 19.251 92.514C19.685 93.258 19.902 93.971 19.902 94.653C19.902 95.583 19.468 96.141 18.6 96.327C18.104 95.149 17.732 93.971 17.484 92.793C17.236 91.615 17.05 90.437 16.926 89.259C16.926 90.499 16.988 91.708 17.112 92.886C17.298 94.126 17.608 95.366 18.042 96.606L16.647 97.164L17.484 98.28C17.36 98.962 17.081 99.613 16.647 100.233C16.275 100.791 15.686 101.07 14.88 101.07C13.888 101.07 13.082 100.543 12.462 99.489C11.904 98.373 11.439 97.071 11.067 95.583C10.757 94.033 10.54 92.483 10.416 90.933C10.354 89.321 10.323 87.988 10.323 86.934C10.323 84.826 10.323 82.749 10.323 80.703C10.385 78.657 10.478 76.58 10.602 74.472C10.292 76.456 10.106 78.471 10.044 80.517C10.044 82.563 10.044 84.609 10.044 86.655C10.044 88.825 10.168 91.057 10.416 93.351C10.664 95.645 11.036 97.846 11.532 99.954C10.726 99.21 10.106 98.373 9.672 97.443C9.3 96.513 8.99 95.552 8.742 94.56C8.556 93.506 8.401 92.452 8.277 91.398C8.215 90.344 8.153 89.321 8.091 88.329L9.207 88.05C8.959 87.12 8.804 86.19 8.742 85.26C8.68 84.268 8.649 83.276 8.649 82.284C8.649 80.114 8.804 78.006 9.114 75.96C9.424 73.852 9.579 71.713 9.579 69.543V68.427L9.486 66.102H8.928C8.804 69.078 8.618 72.054 8.37 75.03C8.184 78.006 8.06 81.013 7.998 84.051C7.936 83.431 7.905 82.842 7.905 82.284V80.517C7.905 75.991 8.122 71.558 8.556 67.218C9.052 62.816 9.548 58.383 10.044 53.919C10.168 52.493 10.54 51.191 11.16 50.013C11.78 48.773 12.276 47.502 12.648 46.2C12.896 46.386 13.206 46.51 13.578 46.572C13.95 46.572 14.291 46.603 14.601 46.665C14.911 46.665 15.19 46.758 15.438 46.944C15.686 47.13 15.81 47.44 15.81 47.874C15.81 48.122 15.779 48.37 15.717 48.618L15.531 49.362L16.368 49.641C16.802 48.959 17.36 48.308 18.042 47.688C18.724 47.068 19.499 46.758 20.367 46.758C21.049 46.758 21.545 47.037 21.855 47.595C22.165 48.153 22.32 48.742 22.32 49.362C22.32 49.734 22.258 50.509 22.134 51.687C22.072 52.865 21.948 54.229 21.762 55.779C21.638 57.329 21.483 59.003 21.297 60.801C21.111 62.537 20.925 64.18 20.739 65.73C20.615 67.28 20.491 68.613 20.367 69.729C20.243 70.783 20.181 71.434 20.181 71.682L22.413 66.66C22.227 67.218 22.041 67.683 21.855 68.055C21.731 68.427 21.607 68.799 21.483 69.171C21.359 69.543 21.173 69.946 20.925 70.38C20.739 70.814 20.46 71.372 20.088 72.054V73.356L23.157 66.381C24.149 66.381 25.11 66.381 26.04 66.381C27.032 66.319 28.024 66.195 29.016 66.009L29.946 65.823C28.582 65.823 27.497 65.823 26.691 65.823C25.947 65.761 25.234 65.668 24.552 65.544C27.032 65.544 29.481 65.513 31.899 65.451C34.379 65.327 36.89 65.265 39.432 65.265C41.664 65.265 43.865 65.203 46.035 65.079C48.267 64.955 50.251 64.521 51.987 63.777C53.785 63.033 55.242 61.886 56.358 60.336C57.474 58.786 58.032 56.585 58.032 53.733C58.032 50.819 57.66 48.463 56.916 46.665C56.172 44.867 55.087 43.472 53.661 42.48C52.297 41.426 50.561 40.744 48.453 40.434C46.345 40.062 43.958 39.876 41.292 39.876C35.836 39.876 30.349 40.124 24.831 40.62C19.313 41.116 13.919 42.046 8.649 43.41C8.525 42.914 8.432 42.48 8.37 42.108C8.308 41.674 8.153 41.302 7.905 40.992C7.905 40.62 8.246 40.279 8.928 39.969C9.61 39.659 10.385 39.411 11.253 39.225C12.121 39.039 12.927 38.884 13.671 38.76C14.477 38.636 15.004 38.543 15.252 38.481V37.365C14.818 37.427 14.074 37.489 13.02 37.551C11.966 37.613 10.819 37.644 9.579 37.644C7.905 37.644 6.355 37.551 4.929 37.365C3.503 37.117 2.79 36.652 2.79 35.97C2.79 35.226 3.596 34.513 5.208 33.831C6.882 33.149 8.99 32.529 11.532 31.971C14.074 31.351 16.864 30.824 19.902 30.39C22.94 29.956 25.854 29.584 28.644 29.274C31.496 28.902 34.007 28.654 36.177 28.53C38.409 28.344 39.959 28.251 40.827 28.251C45.291 28.251 49.321 28.716 52.917 29.646C56.513 30.514 59.551 31.971 62.031 34.017C64.573 36.063 66.495 38.76 67.797 42.108C69.161 45.394 69.843 49.455 69.843 54.291C69.843 58.321 69.068 61.762 67.518 64.614C66.03 67.404 64.015 69.698 61.473 71.496C58.931 73.232 56.017 74.534 52.731 75.402C49.445 76.208 46.035 76.611 42.501 76.611C41.509 76.611 40.517 76.58 39.525 76.518C38.595 76.456 37.634 76.394 36.642 76.332C37.324 76.766 38.44 77.355 39.99 78.099C41.602 78.843 43.369 79.68 45.291 80.61C47.275 81.54 49.321 82.532 51.429 83.586C53.599 84.578 55.552 85.57 57.288 86.562C59.024 87.492 60.45 88.391 61.566 89.259C62.682 90.065 63.24 90.716 63.24 91.212L62.775 91.77C60.729 90.282 58.621 88.98 56.451 87.864C54.281 86.748 52.049 85.694 49.755 84.702C47.523 83.71 45.26 82.749 42.966 81.819C40.796 80.889 38.626 79.804 36.456 78.564C38.564 79.804 40.672 80.889 42.78 81.819L49.383 84.795C51.615 85.787 53.785 86.841 55.893 87.957C58.063 89.011 60.14 90.282 62.124 91.77L60.915 92.886C61.349 93.196 61.845 93.63 62.403 94.188C63.023 94.684 63.581 95.242 64.077 95.862C64.635 96.482 65.1 97.133 65.472 97.815C65.844 98.435 66.03 99.024 66.03 99.582C66.03 100.388 65.658 100.791 64.914 100.791C64.17 100.791 63.364 100.574 62.496 100.14C61.628 99.706 60.853 99.365 60.171 99.117ZM39.897 65.823C38.657 65.823 37.355 65.854 35.991 65.916C34.689 65.916 33.356 65.916 31.992 65.916C33.542 65.978 35.154 66.071 36.828 66.195C38.502 66.257 40.207 66.288 41.943 66.288C44.113 66.288 46.221 66.164 48.267 65.916C50.375 65.606 52.235 65.017 53.847 64.149C55.459 63.219 56.73 61.979 57.66 60.429C58.652 58.817 59.148 56.709 59.148 54.105C59.148 53.237 59.086 52.4 58.962 51.594C58.838 50.788 58.683 49.951 58.497 49.083H57.939C58.311 50.571 58.497 52.09 58.497 53.64C58.497 56.43 58.001 58.631 57.009 60.243C56.017 61.855 54.684 63.095 53.01 63.963C51.336 64.769 49.352 65.296 47.058 65.544C44.826 65.73 42.439 65.823 39.897 65.823ZM23.436 67.869C25.916 67.993 28.427 68.086 30.969 68.148C33.573 68.148 36.239 68.148 38.967 68.148C40.579 68.148 42.191 68.117 43.803 68.055C45.415 67.931 46.965 67.714 48.453 67.404C47.771 67.528 47.089 67.59 46.407 67.59H44.454C43.71 67.59 42.811 67.59 41.757 67.59C40.703 67.528 39.556 67.466 38.316 67.404C37.076 67.342 35.774 67.311 34.41 67.311C33.046 67.249 31.713 67.218 30.411 67.218C28.985 67.218 27.683 67.249 26.505 67.311C25.327 67.373 24.304 67.559 23.436 67.869ZM19.902 75.03C21.142 76.642 22.382 78.161 23.622 79.587C24.924 80.951 26.381 82.253 27.993 83.493C26.505 82.439 24.986 81.168 23.436 79.68C21.948 78.192 20.77 76.642 19.902 75.03ZM33.666 74.286C34.906 74.41 36.146 74.503 37.386 74.565C38.564 74.627 39.68 74.689 40.734 74.751C39.866 74.689 38.998 74.596 38.13 74.472C37.138 74.286 36.146 74.193 35.154 74.193H34.41C34.162 74.193 33.914 74.224 33.666 74.286ZM23.157 67.869C23.095 68.055 22.909 68.427 22.599 68.985C22.351 69.543 22.072 70.163 21.762 70.845C21.514 71.465 21.266 72.054 21.018 72.612C20.77 73.17 20.646 73.542 20.646 73.728L20.832 73.542L23.157 68.148V67.869ZM32.829 76.053H32.55C33.418 76.735 34.41 77.386 35.526 78.006L32.829 76.053ZM21.39 74.472C21.514 74.782 21.7 75.154 21.948 75.588C22.258 75.96 22.63 76.363 23.064 76.797C22.692 76.363 22.382 75.929 22.134 75.495C21.886 74.999 21.7 74.534 21.576 74.1L21.39 74.472ZM32.364 83.865C32.55 83.989 32.705 84.082 32.829 84.144L32.364 83.865ZM121.689 92.142C121.565 93.692 120.945 95.056 119.829 96.234C118.775 97.35 117.442 98.311 115.83 99.117C114.28 99.861 112.606 100.419 110.808 100.791C109.072 101.163 107.491 101.349 106.065 101.349C101.849 101.349 98.067 100.357 94.719 98.373C91.371 96.327 88.519 93.723 86.163 90.561C83.807 87.337 81.947 83.772 80.583 79.866C79.281 76.084 78.537 72.364 78.351 68.706C78.475 72.488 79.188 76.301 80.49 80.145C81.854 84.113 83.714 87.709 86.07 90.933C88.426 94.157 91.309 96.792 94.719 98.838C98.129 100.822 101.973 101.814 106.251 101.814C108.607 101.814 110.901 101.442 113.133 100.698C115.365 99.954 117.442 98.931 119.364 97.629C117.938 99.799 116.047 101.349 113.691 102.279C111.335 103.209 108.917 103.674 106.437 103.674C103.647 103.674 101.074 103.271 98.718 102.465C96.362 101.721 94.068 100.512 91.836 98.838L91.464 97.35C88.922 95.8 86.721 93.878 84.861 91.584C83.063 89.29 81.575 86.81 80.397 84.144C79.281 81.478 78.444 78.688 77.886 75.774C77.39 72.86 77.142 69.946 77.142 67.032C77.142 63.932 77.421 60.863 77.979 57.825C78.599 54.725 79.436 51.687 80.49 48.711C80.242 48.711 80.118 48.618 80.118 48.432C78.816 51.284 77.855 54.229 77.235 57.267C76.615 60.305 76.305 63.405 76.305 66.567C76.305 72.581 77.483 78.378 79.839 83.958C82.195 89.476 85.698 94.157 90.348 98.001C87.93 96.141 85.791 94.002 83.931 91.584C82.133 89.166 80.645 86.593 79.467 83.865C78.289 81.075 77.39 78.192 76.77 75.216C76.212 72.24 75.933 69.233 75.933 66.195C75.933 62.103 76.491 57.949 77.607 53.733C78.785 49.455 80.521 45.58 82.815 42.108C85.171 38.636 88.085 35.815 91.557 33.645C95.029 31.413 99.09 30.297 103.74 30.297C105.848 30.297 107.832 30.638 109.692 31.32C111.614 32.002 113.412 32.901 115.086 34.017C116.76 35.133 118.31 36.404 119.736 37.83C121.224 39.256 122.619 40.713 123.921 42.201L121.968 43.875C121.1 43.565 120.263 43.1 119.457 42.48C118.713 41.798 118.031 41.116 117.411 40.434L116.853 41.085C117.659 42.015 118.403 43.1 119.085 44.34C119.767 45.518 120.108 46.758 120.108 48.06L119.085 49.734C118.279 49.672 117.256 49.207 116.016 48.339C114.838 47.409 113.505 46.448 112.017 45.456C110.591 44.402 109.103 43.441 107.553 42.573C106.065 41.705 104.608 41.271 103.182 41.271C101.322 41.271 99.648 41.736 98.16 42.666C96.734 43.596 95.432 44.805 94.254 46.293C93.076 47.781 92.053 49.486 91.185 51.408C90.379 53.33 89.697 55.283 89.139 57.267C88.643 59.251 88.24 61.204 87.93 63.126C87.682 64.986 87.558 66.629 87.558 68.055C87.558 70.473 87.93 73.139 88.674 76.053C89.48 78.967 90.627 81.695 92.115 84.237C93.665 86.717 95.556 88.794 97.788 90.468C100.02 92.142 102.562 92.979 105.414 92.979C106.716 92.979 108.049 92.855 109.413 92.607C110.839 92.297 112.11 91.801 113.226 91.119L113.97 91.956C111.614 93.754 108.917 94.653 105.879 94.653C102.903 94.653 100.175 93.94 97.695 92.514C98.873 93.32 100.175 93.909 101.601 94.281C103.151 94.715 104.701 94.932 106.251 94.932C109.103 94.932 111.769 94.126 114.249 92.514L115.086 93.723C115.706 93.041 116.481 92.39 117.411 91.77C118.341 91.088 119.302 90.685 120.294 90.561L121.689 92.142ZM86.163 73.449C86.473 77.045 87.527 80.486 89.325 83.772C91.123 86.996 93.479 89.6 96.393 91.584C93.479 89.538 91.185 86.903 89.511 83.679C87.775 80.393 86.659 76.983 86.163 73.449Z" fill="#F0F0F0"/>
</svg>
